<svg xmlns="http://www.w3.org/2000/svg" width="400" height="260">

	<!-- 所有的树枝 -->
	<g stroke="black" stroke-width="1">
		<!-- 第一层的树枝 -->
		<line x1="100" y1="60" x2="200" y2="30" />
		<line x1="300" y1="60" x2="200" y2="30" />

		<!-- 第二层的树枝 -->
		<line x1="100" y1="60" x2="50" y2="100" />
		<line x1="150" y1="100" x2="100" y2="60" />
		<line x1="250" y1="100" x2="300" y2="60" />
		<line x1="350" y1="100" x2="300" y2="60" />

		<!-- 第三层的树枝 -->
		<line x1="25" y1="150" x2="50" y2="100" />
		<line x1="75" y1="150" x2="50" y2="100" />
		<line x1="125" y1="150" x2="150" y2="100" />
		<line x1="175" y1="150" x2="150" y2="100" />
		<line x1="225" y1="150" x2="250" y2="100" />
		<line x1="275" y1="150" x2="250" y2="100" />

		<!-- 新增树枝 -->
		<line x1="325" y1="150" x2="350" y2="100" visibility="hidden">
			<set attributeName="visibility" to="visible" begin="1s" />
		</line>
	</g>

	<!-- 第一层节点 -->
	<g transform="translate(200 30)">
		<circle r="15" fill="#FFCCCC" stroke="black" />
		<text font-size="15" text-anchor="middle" dominant-baseline="middle">
			0</text>
	</g>

	<!-- 第二层节点 -->
	<g transform="translate(100 60)">
		<circle r="15" fill="white" stroke="black" />
		<text font-size="15" text-anchor="middle" dominant-baseline="middle">3</text>
	</g>
	<g transform="translate(300 60)">
		<circle r="15" fill="#FF0000" stroke="black" />
		<text font-size="15" text-anchor="middle" dominant-baseline="middle">2</text>
		<animateMotion path="M0,0 L50,40" begin="4s" dur="1s" fill="freeze" />
	</g>

	<!-- 第三层节点 -->
	<g transform="translate(50 100)">
		<circle r="15" fill="white" stroke="black" />
		<text font-size="15" text-anchor="middle" dominant-baseline="middle">5</text>
	</g>
	<g transform="translate(150 100)">
		<circle r="15" fill="white" stroke="black" />
		<text font-size="15" text-anchor="middle" dominant-baseline="middle">6</text>
	</g>
	<g transform="translate(250 100)">
		<circle r="15" fill="white" stroke="black" />
		<text font-size="15" text-anchor="middle" dominant-baseline="middle">4</text>
	</g>
	<g transform="translate(350 100)">
		<circle r="15" fill="#990000" stroke="black" />
		<text font-size="15" text-anchor="middle" dominant-baseline="middle">7</text>
		<animateMotion path="M0,0 L-25,50" begin="2s" dur="1s" fill="freeze" />
	</g>

	<!-- 第四层节点 -->
	<g transform="translate(25 150)">
		<circle r="15" fill="white" stroke="black" />
		<text font-size="15" text-anchor="middle" dominant-baseline="middle">9</text>
	</g>
	<g transform="translate(75 150)">
		<circle r="15" fill="white" stroke="black" />
		<text font-size="15" text-anchor="middle" dominant-baseline="middle">14</text>
	</g>
	<g transform="translate(125 150)">
		<circle r="15" fill="white" stroke="black" />
		<text font-size="15" text-anchor="middle" dominant-baseline="middle">11</text>
	</g>
	<g transform="translate(175 150)">
		<circle r="15" fill="white" stroke="black" />
		<text font-size="15" text-anchor="middle" dominant-baseline="middle">10</text>
	</g>
	<g transform="translate(225 150)">
		<circle r="15" fill="white" stroke="black" />
		<text font-size="15" text-anchor="middle" dominant-baseline="middle">15</text>
	</g>
	<g transform="translate(275 150)">
		<circle r="15" fill="white" stroke="black" />
		<text font-size="15" text-anchor="middle" dominant-baseline="middle">8</text>
	</g>

	<!-- 最后一个节点 -->
	<g transform="translate(325 150)" visibility="hidden">
		<circle id="c" r="15" fill="#FF6666" stroke="black" />
		<text id="t" font-size="15" text-anchor="middle" dominant-baseline="middle">1</text>

		<set attributeName="visibility" to="visible" begin="1s" />
		<animateMotion path="M0,0 L25,-50" begin="2s" dur="1s" fill="freeze" />
		<animateMotion path="M25,-50 L-25,-90" begin="4s" dur="1s" fill="freeze" />
	</g>

	<text x="20" y="200" fill="blue">最小堆push:</text>
	<text x="35" y="220" fill="blue">1. 放到队尾</text>
	<text x="35" y="240" fill="blue">2. 若小于父节点的值则交换(重复此过程)</text>

</svg>